<svg id="Group_54" data-name="Group 54" xmlns="http://www.w3.org/2000/svg" width="1920" height="1080" viewBox="0 0 1920 1080">
  <rect id="Rectangle_94" data-name="Rectangle 94" width="1920" height="1080" fill="#fff"/>
  <path id="Path_655" data-name="Path 655" d="M263.706,3634.431s128.912-299.1-197.864-395.234-350.76,128.184-350.76,128.184-34.446,127.41,55.492,228.888,280.278,99.583,280.278,99.583,209.856-21.364,212.854-40.057" transform="translate(337.262 -3090.246)" fill="#3480e3" stroke="#707070" stroke-width="1"/>
  <path id="Path_654" data-name="Path 654" d="M1346.967,3571.029s72.441-199.375-212.465-218.066c-197.907-127.688-217.228-64.986-265.694-86.6-26.185-11.68-105.467,49.139-105.467,49.139s-172.512,199.456-96.711,255.53,96.711,333.33,96.711,333.33,356.715,109.668,453.273-24.588S1346.967,3571.029,1346.967,3571.029Z" transform="translate(519.621 -2990.557)" fill="#3480e3" opacity="0.1"/>
</svg>
