<svg xmlns="http://www.w3.org/2000/svg" xmlns:xlink="http://www.w3.org/1999/xlink" width="706.3" height="806.396" viewBox="0 0 706.3 806.396">
  <defs>
    <linearGradient id="linear-gradient" x1="0.5" y1="1" x2="0.5" gradientUnits="objectBoundingBox">
      <stop offset="0" stop-color="gray" stop-opacity="0.251"/>
      <stop offset="0.54" stop-color="gray" stop-opacity="0.122"/>
      <stop offset="1" stop-color="gray" stop-opacity="0.102"/>
    </linearGradient>
  </defs>
  <g id="undraw_messaging_uok8" transform="translate(-195.262 -3120)">
    <ellipse id="Ellipse_75" data-name="Ellipse 75" cx="260.599" cy="50.273" rx="260.599" ry="50.273" transform="translate(377.887 3825.85)" fill="#3480e3" opacity="0.1"/>
    <path id="Path_609" data-name="Path 609" d="M834.315,229.372q-.913-1.026-1.888-2.052c4.956-5.622,10.1-11.4,10.044-18.632-.051-8.782-7.849-15.533-10.763-23.834-3.96-11.286,1.539-23.413,3.8-35.171A65.95,65.95,0,0,0,821.2,95.43c-2.288-2.709-4.945-5.325-8.362-6.4-5.191-1.631-10.7.636-16.108,1.3-17.842,2.206-34.063-13.163-51.986-11.789a9.665,9.665,0,0,0-3.447.769c-2.319,1.108-3.581,3.56-5.007,5.663-5.571,8.208-14.918,12.312-24.213,16.467a12.662,12.662,0,0,0-3.3,1.518c-2.791,1.3-5.54,2.657-8.136,4.2-17.565,10.393-15.01,24.942-4.658,33.919-2.052,10.085-12.312,18.96-10.557,29.333,1.4,8.126,9.86,13.656,11.491,21.741.944,4.7-.544,9.172-2.616,13.615-19.648,4.545-41.85,12.927-43.584,27.7-3.016,25.711-12.086,96.73-12.086,96.73s-10.527,56.88,29.394,29.938l-.513,1.518a330.987,330.987,0,0,0-14.661,67.068c-.4,3.4-1.221,6.064-2.7,6.936-.533.318.523.821,2.832,1.447-.256.954-.544,1.908-.79,2.873a272.558,272.558,0,0,0-8.372,50.8,357.294,357.294,0,0,1-6.279,45.236c-9.459,47.585,0,108.631,0,108.631l20.643,97.181,3.529,16.611a24.686,24.686,0,0,0,8.362,6.033,129.521,129.521,0,0,1,2.873,18.088c.051.677.1,1.365.144,2.052a8.629,8.629,0,0,0-6.156,3.827c-7.356,10.342,1.026,18.622-27.322,39.316-7.336,5.345-10.865,10.209-11.768,14.364h0c-.964,4.443,1.129,8.044,4.873,10.475h0a17.774,17.774,0,0,0,1.99,1.108h0q.523.246,1.026.472h0q.544.226,1.118.421h.062l1.1.349h.082l1.18.308h.1l1.108.236h.144l1.221.205h.133l1.108.133h.215l1.241.092h2.944l1.108-.062h.3l1.252-.123h.144l1.118-.164.308-.051,1.241-.236h.123l1.129-.277.318-.082c.411-.113.811-.226,1.221-.359h.072l1.139-.4.308-.113c.4-.154.79-.308,1.18-.482,18.919-8.28,57.8-30,57.8-30v-4.1h0c-.113-8.916-1.036-29.723-5.14-28.912-1.406.277-2.36,2.247-3.334,4.514l-.482-.923c-4-7.726-9.8-20.981-10.362-33.94a60.739,60.739,0,0,0,8.936-7.921s-2.114-8.9-3.909-18.283c-1.56-8.136-2.883-16.631-2.4-20,1.026-7.244-12.609-63.108-12.609-63.108s1.406-12.312,4.237-29.374c5.5-33.2,16.323-84.5,32.472-99.007.38-.328.749-.657,1.129-.944,0,0,11.563,2.052,21.022,67.243l2.739,29.025a168.482,168.482,0,0,0,4.1,23.854c1.867,7.726,3.868,20.653,2.637,38.156-1.2,17.113-1.713,37.253-1.929,51.391-.164,10.66-.164,17.914-.164,17.914a39.671,39.671,0,0,0,6.31,4.36V763a7.9,7.9,0,0,1-2.216,5.4h0a14.653,14.653,0,0,0-3.17,5.838c-1.837,3.3-3.386,8.67-4.032,17.3-2.052,27.937-3.15,24.829-3.15,24.829a36.838,36.838,0,0,0-2.38,9.418h0c-.062.605-.092,1.211-.113,1.826v1.529a5.444,5.444,0,0,0,.051.616,2.2,2.2,0,0,0,.072.554.843.843,0,0,0,.062.39,7.453,7.453,0,0,1,.154.739l.082.318c.072.256.144.5.226.749l.082.226a6.953,6.953,0,0,0,.277.657l.092.195a7.3,7.3,0,0,0,.411.728l.123.195a7.776,7.776,0,0,0,.5.677l.133.154a7.481,7.481,0,0,0,.636.646l.072.062a7.742,7.742,0,0,0,.728.564l.113.082a8.423,8.423,0,0,0,.862.492l.175.092a9.546,9.546,0,0,0,1.026.4l.174.051a11.427,11.427,0,0,0,1.17.318h0a12.206,12.206,0,0,0,1.293.195h.185c.451,0,.923.072,1.416.072h2.093a12.738,12.738,0,0,0,1.806-.195c22.069-3.078,32.585-5.13,31.528-17.585-.636-7.479-2.411-18.345-3.724-25.8a38.8,38.8,0,0,0-3.632-10.875q.082-.872.154-1.8c.38-5.13.359-11.286-1.2-15.318l.482-9.059a28.881,28.881,0,0,0,14.2-8.505s.154-6.71.615-15.615c.7-13.748,2.052-32.719,4.637-40.249,4.207-12.414,0-55.865,0-55.865s-15.769-74.486-1.026-106.558c12.979-28.286,12.866-56.593.38-84.13a4.256,4.256,0,0,0,.667-.657s-3.15-2.052-2.052-25.865c.8-18.16-4.514-36.935-7.079-44.774a109.538,109.538,0,0,0,12.312,4.432c24.121,7.192,26.224-19.75,26.224-19.75l5.253-40.352,6.238-60.092h0C844.143,254.97,846.431,243.171,834.315,229.372ZM727.469,189.512a18.336,18.336,0,0,1-.144,1.99,26.768,26.768,0,0,1-1.344,6.279,41.725,41.725,0,0,0,1.3-8.393Zm63.539,146.869c.369.687.729,1.344,1.026,2.052l-2.657-1.354a59.431,59.431,0,0,1,4.74-14.1,99.84,99.84,0,0,0,6.423-16.241,162.118,162.118,0,0,0,.934,19.34c2.144,16.508-10.465,10.3-10.465,10.3Z" transform="translate(-83.914 3041.545)" fill="url(#linear-gradient)"/>
    <path id="Path_610" data-name="Path 610" d="M700.392,110.8c-3.355,2.288-6.874,4.935-8.064,8.823-1.929,6.269,2.914,12.558,3.386,19.1.872,11.891-12.579,21.72-10.6,33.488,1.354,8.064,9.624,13.543,11.214,21.546,2.319,11.7-10.352,22.007-9.357,33.857.534,6.33,4.935,11.706,9.921,15.626a48.314,48.314,0,0,0,24.244,9.952c-.585-10.168-8.136-19.432-6.833-29.538.893-6.925,5.766-12.6,8.587-18.991,4.956-11.224,3.365-24.213.4-36.115s-7.264-23.669-7.479-35.909c-.133-7.387,3.334-18.232.79-25.239C713.514,98.88,706.148,106.872,700.392,110.8Z" transform="translate(-82.425 3042.199)" fill="#f78181"/>
    <path id="Path_611" data-name="Path 611" d="M700.392,110.8c-3.355,2.288-6.874,4.935-8.064,8.823-1.929,6.269,2.914,12.558,3.386,19.1.872,11.891-12.579,21.72-10.6,33.488,1.354,8.064,9.624,13.543,11.214,21.546,2.319,11.7-10.352,22.007-9.357,33.857.534,6.33,4.935,11.706,9.921,15.626a48.314,48.314,0,0,0,24.244,9.952c-.585-10.168-8.136-19.432-6.833-29.538.893-6.925,5.766-12.6,8.587-18.991,4.956-11.224,3.365-24.213.4-36.115s-7.264-23.669-7.479-35.909c-.133-7.387,3.334-18.232.79-25.239C713.514,98.88,706.148,106.872,700.392,110.8Z" transform="translate(-82.425 3042.199)" opacity="0.1"/>
    <path id="Path_612" data-name="Path 612" d="M710.681,781.281l-9.234,9.234s-32.831,17.442-28.728-6.156a84.907,84.907,0,0,0,.708-21.217,131.874,131.874,0,0,0-5.838-29.056l30.78-6.156c-5.13,16.087,3.314,36.34,8.577,46.651C709.05,778.737,710.681,781.281,710.681,781.281Z" transform="translate(-82.876 3058.42)" fill="#ffb9b9"/>
    <path id="Path_613" data-name="Path 613" d="M778.469,762.8a93.892,93.892,0,0,1-1.17,9.429s-25.65,17.442-27.7-2.052c-1.334-12.7,1.683-18.468,3.96-20.889h0a7.9,7.9,0,0,0,2.155-5.345V720.93l22.572,7.182-1.026,19.494C778.818,751.658,778.839,757.712,778.469,762.8Z" transform="translate(-80.753 3058.238)" fill="#ffb9b9"/>
    <path id="Path_614" data-name="Path 614" d="M710.56,780.392l-9.234,9.234S668.5,807.067,672.6,783.47a84.917,84.917,0,0,0,.708-21.217c7.182-1.026,15.708,6.854,15.708,6.854,12.025,16.97,15.267,10.547,17.811,4.586C708.929,777.847,710.56,780.392,710.56,780.392Z" transform="translate(-82.755 3059.309)" opacity="0.05"/>
    <path id="Path_615" data-name="Path 615" d="M690.108,771.106s-14.364-13.338-21.546-3.078,1.026,18.468-26.676,38.987,0,33.857,18.468,25.65,56.429-29.754,56.429-29.754,0-33.857-5.13-32.831S707.55,795.73,690.108,771.106Z" transform="translate(-83.848 3059.361)" fill="#8189a6"/>
    <path id="Path_616" data-name="Path 616" d="M778.469,762.113a93.891,93.891,0,0,1-1.17,9.429s-25.65,17.442-27.7-2.052c-1.334-12.7,1.683-18.468,3.96-20.889a6.156,6.156,0,0,1,6.3-.657c4.1-1.826,8.618,1.221,12.312,5.13A36.268,36.268,0,0,1,778.469,762.113Z" transform="translate(-80.753 3058.925)" opacity="0.05"/>
    <path id="Path_617" data-name="Path 617" d="M760.068,749.945s-11.286-6.156-13.338,21.546-3.078,24.623-3.078,24.623-10.26,24.624,11.286,21.546,31.805-5.13,30.779-17.442c-.616-7.418-2.36-18.2-3.642-25.588a37.622,37.622,0,0,0-9.654-19.494C768.7,751.155,764.172,748.119,760.068,749.945Z" transform="translate(-80.963 3058.977)" fill="#8189a6"/>
    <path id="Path_618" data-name="Path 618" d="M799.746,627.426s4.1,43.091,0,55.4c-2.493,7.469-3.847,26.286-4.525,39.921-.451,8.823-.605,15.482-.605,15.482-19.494,20.52-42.065,0-42.065,0s0-7.182.164-17.77c.216-14.025.718-34,1.888-50.971,1.2-17.36-.749-30.174-2.575-37.838A169.488,169.488,0,0,1,748.047,608l-2.678-28.789c-9.234-64.637-20.52-66.689-20.52-66.689-.369.287-.728.605-1.1.934-15.769,14.364-26.337,65.263-31.7,98.186-2.76,16.939-4.1,29.128-4.1,29.128s13.338,55.4,12.312,62.585c-.472,3.334.821,11.768,2.339,19.832,1.754,9.306,3.817,18.129,3.817,18.129-25.65,27.7-43.091,6.156-43.091,6.156L659.874,731l-20.15-96.381s-9.234-60.533,0-107.728a359.63,359.63,0,0,0,6.156-44.866,274.252,274.252,0,0,1,8.208-50.376q1.878-7.325,4.165-14.538s38.526-6.7,74.8-6.7c27.209,0,53.146,3.765,60.625,16.96q2.585,4.555,4.7,9.131c12.989,27.917,13.338,56.593.431,85.259C784.357,553.555,799.746,627.426,799.746,627.426Z" transform="translate(-83.706 3050.17)" fill="#4c4c78"/>
    <path id="Path_619" data-name="Path 619" d="M712.316,261.717s-54.377-55.4-13.338-51.3c9.306.934,15.605-.728,19.781-3.847,4.761-3.55,6.761-8.988,7.315-14.661,1.129-11.286-3.5-23.6-3.5-23.6s55.4-44.117,44.117,11.286a94.445,94.445,0,0,0-2.155,17.124c-.185,11.758,3.683,16.262,9.111,18.109,9.152,3.129,22.756-1.252,28.953,8.885C813.888,242.223,712.316,261.717,712.316,261.717Z" transform="translate(-82.458 3043.447)" fill="#ffb9b9"/>
    <path id="Path_620" data-name="Path 620" d="M765.707,179.638a94.451,94.451,0,0,0-2.155,17.124,41.876,41.876,0,0,1-4.5,1.282,44.2,44.2,0,0,1-33.96-6.156c1.129-11.286-3.5-23.6-3.5-23.6S776.993,124.235,765.707,179.638Z" transform="translate(-81.473 3043.448)" opacity="0.05"/>
    <path id="Path_621" data-name="Path 621" d="M793.825,154.046a44.117,44.117,0,0,1-88.235,0c0-.821,0-1.642.072-2.452a44.117,44.117,0,0,1,88.163,2.452Z" transform="translate(-81.888 3042.364)" fill="#ffb9b9"/>
    <path id="Path_622" data-name="Path 622" d="M712.316,260.327s-54.377-55.4-13.338-51.3c9.306.934,15.605-.728,19.781-3.847-7.941,13.174-16.877,36.864,23.31,34.627,36.781-2.052,36.156-16.7,31.58-26.327,9.152,3.129,22.756-1.252,28.953,8.885C813.888,240.833,712.316,260.327,712.316,260.327Z" transform="translate(-82.458 3044.838)" opacity="0.05"/>
    <path id="Path_623" data-name="Path 623" d="M799.281,440.7c-9.336,12.137-128.35-3.776-145.751-9.059q1.877-7.326,4.165-14.538s38.526-6.7,74.8-6.7c27.209,0,53.146,3.765,60.625,16.96q2.586,4.555,4.7,9.131C798.481,440.164,799.281,440.7,799.281,440.7Z" transform="translate(-83.241 3050.17)" opacity="0.1"/>
    <path id="Path_624" data-name="Path 624" d="M724.751,199.93s-69.254,5.643-72.332,32.318c-2.945,25.506-11.8,95.929-11.8,95.929s-10.26,56.429,28.727,29.753l-.5,1.5a332.753,332.753,0,0,0-14.312,66.514c-.4,3.365-1.19,6.012-2.637,6.884-5.13,3.078,137.482,23.6,147.741,10.26,0,0-3.078-2.052-2.052-25.65s-8.208-48.221-8.208-48.221S781.17,344.593,792.456,321s7.182-30.779,7.182-30.779l38.987-29.753s8.423-14.436-6.977-32.247A53.351,53.351,0,0,0,795,210.159L768.12,208.21s29.466,31.7-25.937,34.781S724.751,199.93,724.751,199.93Z" transform="translate(-83.608 3044.701)" fill="#f9d048"/>
    <path id="Path_625" data-name="Path 625" d="M677.73,254.93s2.052,16.416-2.052,21.546-5.13,28.728,0,43.091" transform="translate(-82.756 3046.13)" opacity="0.05"/>
    <path id="Path_626" data-name="Path 626" d="M722.352,511.435c-15.769,14.364-26.337,65.263-31.7,98.186-7.469-45.831,23.6-121.692,23.6-121.692Z" transform="translate(-82.307 3052.184)" opacity="0.1"/>
    <path id="Path_627" data-name="Path 627" d="M705.769,733.389c-25.65,27.7-43.091,6.156-43.091,6.156l-3.447-16.477c9.7,5.038,26.08,8.947,42.722-7.808C703.706,724.566,705.769,733.389,705.769,733.389Z" transform="translate(-83.093 3058.09)" opacity="0.1"/>
    <path id="Path_628" data-name="Path 628" d="M792.261,714.9c-.451,8.823-.605,15.482-.605,15.482-19.494,20.52-42.065,0-42.065,0s0-7.182.164-17.77C758.219,717.986,773.434,723.906,792.261,714.9Z" transform="translate(-80.745 3058.021)" opacity="0.1"/>
    <rect id="Rectangle_87" data-name="Rectangle 87" width="69.767" height="28.727" rx="3.75" transform="translate(600.104 3335.944)" fill="#cdd0db"/>
    <rect id="Rectangle_88" data-name="Rectangle 88" width="69.767" height="28.727" rx="3.75" transform="translate(600.104 3335.944)" opacity="0.05"/>
    <rect id="Rectangle_89" data-name="Rectangle 89" width="69.767" height="28.727" rx="3.75" transform="translate(600.104 3336.969)" fill="#cdd0db"/>
    <circle id="Ellipse_76" data-name="Ellipse 76" cx="3.078" cy="3.078" r="3.078" transform="translate(651.916 3347.742)" fill="#9da7c0"/>
    <path id="Path_629" data-name="Path 629" d="M653.67,334.161a19.956,19.956,0,0,1,11.594-12.209c3.509-1.457,7.787-4.1,9.952-8.936,4.042-8.957,11.224-18.191,29.692-12.035s-5.13,10.26-5.13,10.26,42.065-6.156,25.65,6.156-36.935,19.494-36.935,19.494l-10.106,10.7c-6.156,6.535-16.847,6.5-22.572-.451C653.25,344,651.9,339.773,653.67,334.161Z" transform="translate(-83.258 3047.275)" opacity="0.05"/>
    <path id="Path_630" data-name="Path 630" d="M652.671,332.161a19.955,19.955,0,0,1,11.594-12.209c3.509-1.457,7.787-4.1,9.952-8.936,4.042-8.957,11.224-18.191,29.692-12.035s-5.13,10.26-5.13,10.26,42.065-6.156,25.65,6.156-36.935,19.494-36.935,19.494l-10.106,10.7c-6.156,6.535-16.847,6.5-22.572-.451C652.25,342,650.9,337.773,652.671,332.161Z" transform="translate(-83.284 3047.223)" fill="#ffb9b9"/>
    <path id="Path_631" data-name="Path 631" d="M795.374,353.208l-7.182,17.442-9.234-6.761L753.309,345l-17.442-11.286c-24.624-18.468,0-21.546,0-21.546-9.234-4.1,0-8.208,0-8.208,32.831-7.182,26.675,19.494,26.675,19.494l20.8,10.783,6.9,3.581Z" transform="translate(-81.386 3047.372)" opacity="0.05"/>
    <path id="Path_632" data-name="Path 632" d="M797.374,351.208l-7.182,17.442-9.234-6.761L755.309,343l-17.442-11.286c-24.624-18.468,0-21.546,0-21.546-9.234-4.1,0-8.208,0-8.208,32.831-7.182,26.676,19.494,26.676,19.494l20.8,10.783,6.9,3.581Z" transform="translate(-81.334 3047.32)" fill="#ffb9b9"/>
    <path id="Path_633" data-name="Path 633" d="M796.006,350.41l-7.182,17.442-9.234-6.761c8.321.3,18.15-3.724,4.34-29.651l6.9,3.581Z" transform="translate(-79.966 3048.118)" opacity="0.05"/>
    <path id="Path_634" data-name="Path 634" d="M834.123,248.93,836.1,257l-6.084,59.64-5.13,40.013s-2.052,26.676-25.65,19.494-25.65-14.364-25.65-14.364,33.857,11.286,12.312-28.728c0,0,12.312,6.156,10.26-10.26s0-45.143,0-45.143Z" transform="translate(-80.122 3045.974)" fill="#f9d048"/>
    <path id="Path_635" data-name="Path 635" d="M793.824,154.046a44.118,44.118,0,0,1-34.365,43.031c-1.473-4.269-2.519-8.517-1.442-12.836,2.052-8.382,11.758-14.5,10.68-23.064a5.684,5.684,0,0,0-1.026-2.688c-2.165-2.852-6.577-1.436-10.085-.728-9.07,1.806-19-4.319-21.464-13.235a29.989,29.989,0,0,1-30.513,7.069,44.117,44.117,0,0,1,88.163,2.452Z" transform="translate(-81.888 3042.364)" opacity="0.05"/>
    <path id="Path_636" data-name="Path 636" d="M737.674,143.211c2.452,8.916,12.394,15.041,21.453,13.225,3.509-.7,7.921-2.114,10.085.739a5.542,5.542,0,0,1,.975,2.678c1.088,8.577-8.588,14.682-10.67,23.074-2.144,8.639,4.1,16.98,5.489,25.773.729,4.812,0,9.716,0,14.579s1.149,10.1,4.761,13.338,10.26,3.3,12.691-.923c11.542,6.1,6.936,25.013,15.7,34.688,4.832,5.335,12.784,6.618,19.955,5.94A8.414,8.414,0,0,0,822.8,274.8a8.208,8.208,0,0,0,2.3-4.309,35,35,0,0,0-.893-20.756c-1.149-3.191-2.8-6.412-2.37-9.767.328-2.627,1.9-4.914,3.56-6.977,5.509-6.833,13.03-13.44,12.979-22.223s-7.664-15.39-10.506-23.6c-3.868-11.214,1.5-23.228,3.7-34.883a66.166,66.166,0,0,0-13.953-53.864c-2.237-2.688-4.832-5.284-8.208-6.351-5.058-1.621-10.445.636-15.728,1.293-17.442,2.185-33.252-13.061-50.755-11.7a9.317,9.317,0,0,0-3.365.769c-2.267,1.1-3.488,3.529-4.894,5.622-7.726,11.542-22.91,14.836-34.812,22C665.147,130.96,711.091,168.8,737.674,143.211Z" transform="translate(-82.361 3041.626)" fill="#f78181"/>
    <path id="Path_637" data-name="Path 637" d="M660.354,827.684c-11.994,5.325-27.866,1.57-29.948-7.326-2.514,11.758,16.252,17.524,29.948,11.43,18.468-8.208,56.429-29.754,56.429-29.754s0-1.59-.051-4.1C715.624,798.587,678.545,819.547,660.354,827.684Z" transform="translate(-83.848 3060.238)" fill="#fff" opacity="0.3"/>
    <path id="Path_638" data-name="Path 638" d="M785.666,798.35c-1.18,9.234-11.419,11.173-30.728,13.933-9.819,1.406-13.02-2.955-13.615-8.105-.646,6.6,1.231,13.974,13.615,12.209,21.546-3.078,31.805-5.13,30.779-17.442C785.7,798.75,785.676,798.545,785.666,798.35Z" transform="translate(-80.963 3060.249)" fill="#fff" opacity="0.3"/>
    <path id="Path_639" data-name="Path 639" d="M908.352,822.307S893.5,747.01,924.08,695.454A116.244,116.244,0,0,0,940.116,623.7a195.5,195.5,0,0,0-7.182-35.027" transform="translate(-76.714 3054.801)" fill="none" stroke="#535461" stroke-miterlimit="10" stroke-width="2"/>
    <path id="Path_640" data-name="Path 640" d="M951.675,557.322c-.821,8.977-19.494,33.529-19.494,33.529s-13.871-27.537-13.04-36.525a16.332,16.332,0,1,1,32.527,2.986Z" transform="translate(-76.341 3053.523)" fill="#3480e3"/>
    <path id="Path_641" data-name="Path 641" d="M973.476,608.453c-5.571,7.09-34.576,17.565-34.576,17.565s3.324-30.656,8.9-37.746a16.334,16.334,0,1,1,25.65,20.181Z" transform="translate(-75.827 3054.615)" fill="#3480e3"/>
    <path id="Path_642" data-name="Path 642" d="M964.82,691.329c-8.393,3.3-38.71-2.3-38.71-2.3s18.345-24.788,26.737-28.091a16.333,16.333,0,1,1,11.974,30.391Z" transform="translate(-76.159 3056.649)" fill="#3480e3"/>
    <path id="Path_643" data-name="Path 643" d="M944.086,752.417c-7.715,4.678-38.546,4.278-38.546,4.278s13.9-27.517,21.607-32.206a16.333,16.333,0,1,1,16.94,27.929Z" transform="translate(-76.693 3058.269)" fill="#3480e3"/>
    <path id="Path_644" data-name="Path 644" d="M905.56,624.2c5.869,6.854,35.284,16.087,35.284,16.087s-4.617-30.492-10.475-37.336A16.333,16.333,0,1,0,905.558,624.2Z" transform="translate(-76.795 3055.024)" fill="#3480e3"/>
    <path id="Path_645" data-name="Path 645" d="M882.314,696.084c7.644,4.781,38.485,4.791,38.485,4.791s-13.522-27.691-21.166-32.493a16.333,16.333,0,1,0-17.309,27.7Z" transform="translate(-77.496 3056.808)" fill="#3480e3"/>
    <path id="Path_646" data-name="Path 646" d="M869.149,768.941c6.73,6,37.12,11.234,37.12,11.234s-8.649-29.6-15.39-35.6a16.334,16.334,0,1,0-21.73,24.367Z" transform="translate(-77.791 3058.735)" fill="#3480e3"/>
    <path id="Path_647" data-name="Path 647" d="M635.561,170.794a14.907,14.907,0,0,0-14.846-14.364H352.267A15.144,15.144,0,0,0,337.1,169.491a14.918,14.918,0,0,0,14.764,16.693H621.607a11.932,11.932,0,0,1,11.614,6.412,18.913,18.913,0,0,1,1.734,5.13l.605.3V170.835Z" transform="translate(-91.465 3043.571)" fill="#d8dfe8"/>
    <path id="Path_648" data-name="Path 648" d="M631.69,264.794a14.907,14.907,0,0,0-14.846-14.364H501.267A15.144,15.144,0,0,0,486.1,263.491a14.918,14.918,0,0,0,14.764,16.693h116.87A11.932,11.932,0,0,1,629.35,286.6a18.911,18.911,0,0,1,1.734,5.13l.605.3V264.835Z" transform="translate(-87.594 3046.013)" fill="#d8dfe8"/>
    <path id="Path_649" data-name="Path 649" d="M288,123.794c.174-7.941,4.463-14.364,9.7-14.364H473.221c5.345,0,9.716,6.689,9.716,14.877s-4.371,14.877-9.716,14.877H297.665a7.962,7.962,0,0,0-7.695,5.13,27.7,27.7,0,0,0-1.58,6.4l-.39.3V123.825Z" transform="translate(-92.738 3042.35)" fill="#d8dfe8" opacity="0.2"/>
    <path id="Path_650" data-name="Path 650" d="M288,217.794c.215-7.941,5.427-14.364,11.789-14.364h213.4c6.495,0,11.809,6.689,11.809,14.877s-5.315,14.877-11.809,14.877h-213.4c-4.1,0-7.921,1.888-9.357,5.13a23.76,23.76,0,0,0-1.919,6.4l-.482.3V217.825Z" transform="translate(-92.738 3044.792)" fill="#d8dfe8" opacity="0.2"/>
    <circle id="Ellipse_77" data-name="Ellipse 77" cx="5.13" cy="5.13" r="5.13" transform="translate(414.822 3305.677)" fill="#fff" opacity="0.2"/>
    <circle id="Ellipse_78" data-name="Ellipse 78" cx="5.13" cy="5.13" r="5.13" transform="translate(432.264 3305.677)" fill="#fff" opacity="0.2"/>
    <circle id="Ellipse_79" data-name="Ellipse 79" cx="5.13" cy="5.13" r="5.13" transform="translate(449.705 3305.677)" fill="#fff" opacity="0.2"/>
  </g>
</svg>
