<svg xmlns="http://www.w3.org/2000/svg" xmlns:xlink="http://www.w3.org/1999/xlink" viewBox="0 0 192.84 278.5"><defs><style>.cls-1{opacity:0.11;mix-blend-mode:overlay;}.cls-2{mask:url(#mask);}.cls-3{opacity:0.99;}.cls-4{fill:#0b7aa0;}.cls-5{fill:#fcfafa;opacity:0.25;}.cls-6{fill:none;stroke:#fcfafa;stroke-miterlimit:10;stroke-width:14px;}.cls-7{fill:#006a27;}.cls-8{fill:#288e02;}.cls-9{filter:url(#luminosity-noclip);}</style><filter id="luminosity-noclip" x="-118.59" y="-333.71" width="745.93" height="766.79" filterUnits="userSpaceOnUse" color-interpolation-filters="sRGB"><feFlood flood-color="#fff" result="bg"/><feBlend in="SourceGraphic" in2="bg"/></filter><mask id="mask" x="-118.59" y="-333.71" width="745.93" height="766.79" maskUnits="userSpaceOnUse"><g class="cls-9"><rect class="cls-1" x="62.02" y="-293.43" width="384.72" height="686.22" transform="translate(32.55 183.73) rotate(-42.2)"/></g></mask></defs><title>Asset 3</title><g id="Layer_2" data-name="Layer 2"><g id="Layer_2-2" data-name="Layer 2"><g class="cls-2"><g class="cls-3"><path class="cls-4" d="M95.19,278.5a4,4,0,1,0,0-8H49.78a4,4,0,0,1-4-4h0a4,4,0,0,1,4-4H82.87a4,4,0,1,0,0-8H37.46a4,4,0,1,1,0-8H63.85a4,4,0,0,0,4-4h0a4,4,0,0,0-4-4H19.31a4,4,0,0,1,0-8H51.24a4,4,0,0,0,0-8H7a4,4,0,0,1-4-4H3a4,4,0,0,1,4-4l63.91,0-43.06-33.6a13.85,13.85,0,0,1-2.4-19.43h0a13.85,13.85,0,0,1,19.43-2.4l45.88,35.8V99.43a13.85,13.85,0,0,1,27.69,0v75.87H143a49.84,49.84,0,0,1,49.84,49.84v3.51A49.84,49.84,0,0,1,143,278.5H95.19Z"/><rect class="cls-4" y="230.85" width="11.94" height="7.96" rx="3.98" ry="3.98"/><rect class="cls-5" x="59.34" y="222.88" width="11.94" height="7.96" rx="3.98" ry="3.98" transform="translate(130.61 453.73) rotate(-180)"/><rect class="cls-5" x="90.97" y="254.74" width="15.89" height="7.96" rx="3.98" ry="3.98" transform="translate(197.84 517.45) rotate(-180)"/><rect class="cls-5" x="71.95" y="238.81" width="25.97" height="7.96" rx="3.98" ry="3.98" transform="translate(169.88 485.59) rotate(180)"/><rect class="cls-4" y="246.76" width="29.5" height="7.96" rx="3.98" ry="3.98"/><rect class="cls-4" x="12.42" y="262.68" width="29.5" height="7.96" rx="3.98" ry="3.98"/><path class="cls-6" d="M90.63,120.25"/><path d="M104.6,17.66a67.93,67.93,0,0,0-17.36,133.6v-8.47a59.78,59.78,0,1,1,34.64,0v8.47A67.93,67.93,0,0,0,104.6,17.66Z"/><path d="M104.6,30.76A54.83,54.83,0,0,0,87.24,137.6V128.9a46.68,46.68,0,1,1,34.64,0v8.69A54.83,54.83,0,0,0,104.6,30.76Z"/><path d="M104.6,44.15a41.43,41.43,0,0,0-17.36,79V114a33.28,33.28,0,1,1,34.64.06v9.21A41.43,41.43,0,0,0,104.6,44.15Z"/><circle class="cls-7" cx="69.28" cy="4.08" r="4.08"/><circle class="cls-7" cx="22.12" cy="4.08" r="4.08"/><circle class="cls-7" cx="45.7" cy="27.56" r="4.08"/><path class="cls-8" d="M69.28,1.08H22.12c-3.86,0-3.87,6,0,6H45.7l-3-3V27.56c0,3.86,6,3.87,6,0V4.08a3,3,0,0,0-3-3H22.12c-3.86,0-3.87,6,0,6H69.28c3.86,0,3.87-6,0-6Z"/><circle class="cls-7" cx="17.4" cy="36.33" r="3.34"/><circle class="cls-7" cx="17.4" cy="74.96" r="3.34"/><circle class="cls-7" cx="36.64" cy="55.65" r="3.34"/><path class="cls-8" d="M14.4,36.33V75c0,3.86,6,3.87,6,0V55.65l-3,3H36.64c3.86,0,3.87-6,0-6H17.4a3,3,0,0,0-3,3V75c0,3.86,6,3.87,6,0V36.33c0-3.86-6-3.87-6,0Z"/><circle class="cls-7" cx="16.01" cy="17.66" r="4.08"/><circle class="cls-7" cx="5.97" cy="53.76" r="4.08"/><path class="cls-8" d="M16,14.66H6a3,3,0,0,0-3,3v36.1c0,3.86,6,3.87,6,0V17.66l-3,3H16c3.86,0,3.87-6,0-6Z"/><circle class="cls-7" cx="5.97" cy="68.99" r="4.08"/><circle class="cls-7" cx="31.44" cy="110.53" r="4.08"/><path class="cls-8" d="M3,69v41.53a3,3,0,0,0,3,3H31.44c3.86,0,3.87-6,0-6H6l3,3V69c0-3.86-6-3.87-6,0Z"/><circle class="cls-7" cx="31.44" cy="121.59" r="4.08"/><circle class="cls-7" cx="31.44" cy="138.87" r="4.08"/><path class="cls-8" d="M28.44,121.59v17.28c0,3.86,6,3.87,6,0V121.59c0-3.86-6-3.87-6,0Z"/><circle class="cls-7" cx="30.27" cy="19.89" r="4.08"/><circle class="cls-7" cx="30.27" cy="37.17" r="4.08"/><path class="cls-8" d="M27.27,19.89V37.17c0,3.86,6,3.87,6,0V19.89c0-3.86-6-3.87-6,0Z"/><circle class="cls-7" cx="49.78" cy="142.95" r="4.08"/><circle class="cls-7" cx="67.24" cy="157.7" r="4.08"/><path class="cls-8" d="M47.65,145.07l17.47,14.75c2.93,2.48,7.2-1.75,4.24-4.24L51.9,140.82c-2.93-2.48-7.2,1.75-4.24,4.24Z"/><circle class="cls-7" cx="153.27" cy="22.32" r="4.08"/><circle class="cls-7" cx="170.74" cy="37.07" r="4.08"/><path class="cls-8" d="M151.15,24.44l17.47,14.75c2.93,2.48,7.2-1.75,4.24-4.24L155.39,20.2c-2.93-2.48-7.2,1.75-4.24,4.24Z"/><circle class="cls-7" cx="16.64" cy="86.24" r="3.35"/><circle class="cls-7" cx="31" cy="98.37" r="3.35"/><path class="cls-8" d="M14.52,88.36l14.36,12.12c2.93,2.48,7.2-1.75,4.24-4.24L18.76,84.12c-2.93-2.48-7.2,1.75-4.24,4.24Z"/><circle class="cls-7" cx="140.6" cy="157.7" r="4.08"/><circle class="cls-7" cx="163.89" cy="137.5" r="4.08"/><circle class="cls-7" cx="183.4" cy="123.23" r="4.08"/><path class="cls-8" d="M180.4,123.23V157.7l3-3H140.6c-3.86,0-3.87,6,0,6h42.8a3,3,0,0,0,2.12-5.12L166,135.38c-2.69-2.78-6.93,1.46-4.24,4.24l19.51,20.19,2.12-5.12H140.6c-3.86,0-3.87,6,0,6h42.8a3,3,0,0,0,3-3V123.23c0-3.86-6-3.87-6,0Z"/><circle class="cls-7" cx="182.91" cy="109.49" r="3.58"/><circle class="cls-7" cx="182.91" cy="94.34" r="3.58"/><path class="cls-8" d="M185.91,109.49V94.34c0-3.86-6-3.87-6,0v8c0,3.86,6,3.87,6,0v-8c0-3.86-6-3.87-6,0v15.15c0,3.86,6,3.87,6,0Z"/><circle class="cls-7" cx="181.92" cy="78.31" r="3.37"/><circle class="cls-7" cx="181.92" cy="55.32" r="3.37"/><path class="cls-8" d="M184.92,78.31v-23c0-3.86-6-3.87-6,0v11.5c0,3.86,6,3.87,6,0V55.32c0-3.86-6-3.87-6,0v23c0,3.86,6,3.87,6,0Z"/><circle class="cls-7" cx="182.42" cy="40.08" r="4.08"/><circle class="cls-7" cx="151.85" cy="11.74" r="4.08"/><path class="cls-8" d="M185.42,40.08V11.74a3,3,0,0,0-3-3H151.85c-3.86,0-3.87,6,0,6h30.57l-3-3V40.08c0,3.86,6,3.87,6,0Z"/><circle class="cls-7" cx="135.65" cy="11.74" r="4.08"/><circle class="cls-7" cx="79.37" cy="11.74" r="4.08"/><path class="cls-8" d="M135.65,8.74H79.37c-3.86,0-3.87,6,0,6h56.28c3.86,0,3.87-6,0-6Z"/></g></g></g></g></svg>